Coordinates
version=1
nRows=19
nColumns=63
inDegrees=yes

Units are S.I. units (second, meters, Newtons, ...)
If the header above contains a line with 'inDegrees', this indicates whether rotational values are in degrees (yes) or radians (no).

endheader
time	pelvis_tilt	pelvis_list	pelvis_rotation	pelvis_tx	pelvis_ty	pelvis_tz	hip_flexion_r	hip_adduction_r	hip_rotation_r	knee_angle_r	knee_angle_r_beta	ankle_angle_r	subtalar_angle_r	mtp_angle_r	hip_flexion_l	hip_adduction_l	hip_rotation_l	knee_angle_l	knee_angle_l_beta	ankle_angle_l	subtalar_angle_l	mtp_angle_l	L5_S1_Flex_Ext	L5_S1_Lat_Bending	L5_S1_axial_rotation	L4_L5_Flex_Ext	L4_L5_Lat_Bending	L4_L5_axial_rotation	L3_L4_Flex_Ext	L3_L4_Lat_Bending	L3_L4_axial_rotation	L2_L3_Flex_Ext	L2_L3_Lat_Bending	L2_L3_axial_rotation	L1_L2_Flex_Ext	L1_L2_Lat_Bending	L1_L2_axial_rotation	L1_T12_Flex_Ext	L1_T12_Lat_Bending	L1_T12_axial_rotation	Abs_r3	Abs_r2	Abs_r1	Abs_t1	Abs_t2	neck_flexion	neck_bending	neck_rotation	arm_flex_r	arm_add_r	arm_rot_r	elbow_flex_r	pro_sup_r	wrist_flex_r	wrist_dev_r	arm_flex_l	arm_add_l	arm_rot_l	elbow_flex_l	pro_sup_l	wrist_flex_l	wrist_dev_l
4.622222	1.475466	-5.041486	102.649341	0.228459	0.651078	0.807860	2.151293	2.214451	-11.653499	9.026091	0.157535	19.516525	-3.054953	0.000000	1.093743	-1.256509	5.947773	0.791361	0.013812	25.217055	8.425983	0.000000	0.596201	0.406061	-1.406937	1.107205	0.540061	-1.494870	0.979499	0.987296	-1.494870	0.681398	0.987296	-1.231070	0.553632	0.828039	-1.143136	0.340669	0.628988	-1.055203	4.258604	4.593442	-7.824960	0.000000	0.000000	28.429478	14.071165	7.080141	6.919120	-10.833428	53.089531	26.758245	86.028420	5.610010	6.318328	1.545384	-8.515400	50.883269	28.360730	71.503132	-7.200478	-3.832719
4.644444	1.605741	-4.802214	102.249585	0.229119	0.651627	0.807208	1.906013	2.471219	-11.034345	8.932124	0.155895	19.287429	-3.515194	0.000000	0.770662	-1.490482	5.701189	0.736816	0.012860	25.229839	8.345672	0.000000	0.528873	0.427647	-1.343169	0.982170	0.568770	-1.427118	0.868886	1.039780	-1.427118	0.604449	1.039780	-1.175273	0.491112	0.872057	-1.091325	0.302198	0.662425	-1.007377	3.777688	4.837625	-7.470306	0.000000	0.000000	28.391266	12.367229	5.440430	6.814091	-11.012357	53.149953	26.419244	86.207390	5.166036	5.540130	1.933088	-8.605969	51.014492	28.093043	73.618183	-7.505891	-4.115552
4.666667	1.767848	-4.564028	101.937492	0.229599	0.652129	0.806656	1.656299	2.756615	-10.468999	8.799458	0.153580	19.080733	-4.017531	0.000000	0.468257	-1.749817	5.744422	0.685829	0.011970	25.152882	8.008511	0.000000	0.461140	0.453866	-1.287287	0.856383	0.603642	-1.367742	0.757606	1.103530	-1.367742	0.527037	1.103530	-1.126376	0.428214	0.925524	-1.045921	0.263495	0.703038	-0.965465	3.293875	5.134223	-7.159504	0.000000	0.000000	28.348183	10.596752	3.944425	6.496143	-11.207586	52.535423	26.271002	86.323693	4.690871	4.915199	2.385098	-8.735135	51.261091	27.946241	75.865062	-8.097754	-4.417242
4.688889	1.955355	-4.336579	101.734879	0.229867	0.652564	0.806217	1.409684	3.058727	-9.996975	8.627048	0.150570	18.918776	-4.509125	0.000000	0.201600	-2.023895	6.084397	0.640019	0.011170	24.994259	7.430028	0.000000	0.395348	0.483516	-1.242970	0.734201	0.643076	-1.320656	0.649517	1.175620	-1.320656	0.451843	1.175620	-1.087599	0.367120	0.985985	-1.009913	0.225902	0.748966	-0.932228	2.823931	5.469625	-6.913027	0.000000	0.000000	28.300740	8.784923	2.607359	5.993919	-11.422300	51.355718	26.318455	86.323883	4.202052	4.477032	2.849037	-8.897069	51.522143	27.951274	78.183528	-8.984215	-4.743705
4.711111	2.161820	-4.120185	101.654646	0.229902	0.652928	0.805937	1.171038	3.366645	-9.661439	8.427624	0.147090	18.812193	-4.936257	0.000000	-0.023760	-2.305261	6.688879	0.601706	0.010502	24.782435	6.664070	0.000000	0.331478	0.515763	-1.214122	0.615587	0.685965	-1.290004	0.544584	1.254027	-1.290004	0.378846	1.254027	-1.062356	0.307810	1.051745	-0.986474	0.189406	0.798918	-0.910591	2.367711	5.834420	-6.752580	0.000000	0.000000	28.249693	7.011965	1.512620	5.387802	-11.666506	49.862352	26.535763	86.128698	3.708835	4.251900	3.274827	-9.083597	51.673049	28.139471	80.465001	-10.047862	-5.017028
4.733333	2.376523	-3.914012	101.721397	0.229685	0.653201	0.805841	0.936462	3.673586	-9.472155	8.203277	0.143174	18.744402	-5.325917	0.000000	-0.204604	-2.585599	7.545467	0.573016	0.010001	24.540099	5.759927	0.000000	0.269702	0.549241	-1.204596	0.500864	0.730491	-1.279883	0.443094	1.335425	-1.279883	0.308243	1.335425	-1.054021	0.250446	1.120013	-0.978734	0.154108	0.850775	-0.903447	1.926457	6.213127	-6.699600	0.000000	0.000000	28.194934	5.365870	0.758947	4.689396	-11.910583	47.971601	26.903742	85.949567	3.335541	4.293631	3.636648	-9.292986	51.704194	28.520622	82.587803	-11.286232	-5.185781
4.755556	2.581792	-3.716464	101.932085	0.229243	0.653380	0.805916	0.700144	3.963713	-9.430687	7.959295	0.138916	18.718431	-5.650105	0.000000	-0.348795	-2.850764	8.611905	0.553983	0.009669	24.272531	4.771641	0.000000	0.210819	0.581581	-1.216593	0.391512	0.773503	-1.292630	0.346354	1.414056	-1.292630	0.240945	1.414056	-1.064519	0.195766	1.185960	-0.988482	0.120462	0.900869	-0.912445	1.505859	6.578960	-6.766324	0.000000	0.000000	28.136802	3.917198	0.382418	3.958107	-12.138636	45.875789	27.340447	85.760398	3.077353	4.519405	3.886396	-9.526955	51.492107	29.108253	84.494168	-12.470116	-5.165502
4.777778	2.776969	-3.532149	102.269068	0.228614	0.653456	0.806154	0.467295	4.234613	-9.535858	7.694991	0.134303	18.713488	-5.933270	0.000000	-0.454942	-3.096505	9.902198	0.546178	0.009533	23.977480	3.608022	0.000000	0.156042	0.612377	-1.246038	0.289785	0.814462	-1.323916	0.256361	1.488934	-1.323916	0.178340	1.488934	-1.090284	0.144900	1.248760	-1.012406	0.089162	0.948573	-0.934529	1.114591	6.927336	-6.930091	0.000000	0.000000	28.077101	2.736249	0.413182	3.197162	-12.325246	43.509656	27.838099	85.677905	2.923875	5.011499	4.026039	-9.768176	51.133349	29.853935	86.118935	-13.745500	-5.009165
4.800000	2.943246	-3.367186	102.715033	0.227864	0.653451	0.806508	0.242569	4.469417	-9.771840	7.418760	0.129482	18.744081	-6.141062	0.000000	-0.524051	-3.307746	11.265524	0.547613	0.009558	23.671150	2.451326	0.000000	0.108937	0.638048	-1.290919	0.202306	0.848604	-1.371601	0.178972	1.551350	-1.371601	0.124504	1.551350	-1.129554	0.101158	1.301107	-1.048872	0.062246	0.988336	-0.968189	0.778123	7.217725	-7.179703	0.000000	0.000000	28.019222	1.702893	0.542044	2.515395	-12.460895	41.327357	28.238258	85.527375	2.932351	5.534346	4.042709	-10.020218	50.596886	30.711998	87.427739	-14.844529	-4.684216
4.822222	3.081044	-3.224479	103.274558	0.227041	0.653391	0.806968	0.022380	4.680966	-10.048827	7.115421	0.124188	18.736575	-6.439115	0.000000	-0.549109	-3.487005	12.616477	0.560889	0.009789	23.378901	1.411914	0.000000	0.070606	0.656965	-1.349920	0.131123	0.873764	-1.434290	0.115999	1.597345	-1.434290	0.080696	1.597345	-1.181180	0.065565	1.339684	-1.096810	0.040345	1.017639	-1.012440	0.504335	7.431723	-7.507848	0.000000	0.000000	27.967725	0.787305	0.591286	1.929574	-12.527837	39.436073	28.507480	85.233623	3.005757	6.056178	3.976809	-10.276261	50.001822	31.597062	88.331920	-15.644252	-4.203994
4.844444	3.180263	-3.114062	103.909521	0.226206	0.653293	0.807510	-0.177893	4.849688	-10.436169	6.809990	0.118857	18.688915	-6.722390	0.000000	-0.527518	-3.620952	13.923402	0.582335	0.010164	23.095950	0.470862	0.000000	0.041818	0.667642	-1.416252	0.077659	0.887964	-1.504768	0.068702	1.623306	-1.504768	0.047793	1.623306	-1.239220	0.038832	1.361456	-1.150705	0.023895	1.034178	-1.062189	0.298698	7.552504	-7.876768	0.000000	0.000000	27.925928	-0.033436	0.493275	1.457112	-12.522171	37.890160	28.619722	84.853674	3.178803	6.500995	3.854595	-10.512356	49.414587	32.417234	88.906751	-16.079387	-3.621964
4.866667	3.232128	-3.025641	104.592253	0.225393	0.653203	0.808098	-0.376089	4.983876	-10.739593	6.487524	0.113229	18.500015	-7.278301	0.000000	-0.477905	-3.702204	15.234355	0.605478	0.010568	22.807175	-0.476435	0.000000	0.020861	0.669068	-1.486454	0.038742	0.889861	-1.579358	0.034273	1.626773	-1.579358	0.023843	1.626773	-1.300648	0.019372	1.364364	-1.207744	0.011920	1.036387	-1.114841	0.149011	7.568637	-8.267214	0.000000	0.000000	27.879260	-0.800782	0.145400	1.131349	-12.473317	36.939187	28.561105	84.155695	3.352944	6.769391	3.711075	-10.721444	48.965798	33.122741	89.134831	-16.207301	-2.922259
4.888889	3.255393	-2.959184	105.262527	0.224641	0.653128	0.808713	-0.549817	5.072440	-11.247960	6.198925	0.108192	18.296032	-7.582317	0.000000	-0.400857	-3.747973	16.339987	0.632654	0.011042	22.580436	-1.207321	0.000000	0.007085	0.665202	-1.556570	0.013158	0.884719	-1.653855	0.011641	1.617373	-1.653855	0.008098	1.617373	-1.361998	0.006580	1.356480	-1.264713	0.004049	1.030398	-1.167427	0.050611	7.524900	-8.657173	0.000000	0.000000	27.819336	-1.433418	-0.267012	0.893555	-12.381573	36.227397	28.434424	83.523780	3.538891	6.956385	3.521688	-10.820529	48.478841	33.617799	89.008826	-15.958525	-2.260682
4.911111	3.247569	-2.901115	105.927003	0.223950	0.653092	0.809423	-0.712942	5.120625	-11.928830	5.932651	0.103544	18.099162	-7.659174	0.000000	-0.305199	-3.758650	17.238797	0.658355	0.011490	22.423716	-1.691136	0.000000	-0.003884	0.656616	-1.631589	-0.007213	0.873299	-1.733563	-0.006381	1.596496	-1.733563	-0.004439	1.596496	-1.427641	-0.003606	1.338972	-1.325666	-0.002219	1.017098	-1.223692	-0.027742	7.427773	-9.074409	0.000000	0.000000	27.766303	-1.918578	-0.694784	0.780932	-12.249363	35.793098	28.227243	82.970702	3.733555	7.054093	3.342101	-10.846239	48.088214	33.912830	88.622519	-15.283543	-1.580079
4.933333	3.220755	-2.864304	106.502301	0.223403	0.653067	0.810176	-0.832202	5.129277	-12.703777	5.729939	0.100006	17.919860	-7.521061	0.000000	-0.188511	-3.743192	17.863108	0.686624	0.011984	22.363090	-1.928901	0.000000	-0.011148	0.645104	-1.705810	-0.020703	0.857989	-1.812423	-0.018315	1.568506	-1.812423	-0.012741	1.568506	-1.492584	-0.010352	1.315497	-1.385971	-0.006370	0.999266	-1.279358	-0.079629	7.297548	-9.487204	0.000000	0.000000	27.696175	-2.190382	-1.007205	0.799642	-12.101099	35.693574	27.978572	82.529125	3.853230	7.039731	3.030053	-10.722466	47.153244	34.033951	88.396695	-14.280061	-0.932388
4.955556	3.186904	-2.845883	106.992995	0.222977	0.653054	0.811023	-0.907545	5.109915	-13.572313	5.586968	0.097511	17.757041	-7.151004	0.000000	-0.054121	-3.711131	18.293275	0.709702	0.012387	22.370895	-2.037087	0.000000	-0.016361	0.632489	-1.782922	-0.030383	0.841210	-1.894354	-0.026879	1.537834	-1.894354	-0.018699	1.537834	-1.560056	-0.015192	1.289772	-1.448624	-0.009348	0.979725	-1.337191	-0.116862	7.154842	-9.916075	0.000000	0.000000	27.609522	-2.276813	-1.206397	0.952442	-11.930240	35.842244	27.683138	82.351623	3.942521	6.935679	2.667008	-10.468994	45.962330	33.946067	88.069565	-12.941277	-0.366473
4.977778	3.152055	-2.816408	107.375430	0.222670	0.653084	0.811926	-0.967978	5.061398	-14.708226	5.517042	0.096291	17.680538	-6.286423	0.000000	0.064051	-3.679468	18.335203	0.741290	0.012938	22.500645	-1.724649	0.000000	-0.024737	0.621336	-1.854718	-0.045939	0.826377	-1.970638	-0.040640	1.510717	-1.970638	-0.028272	1.510717	-1.622878	-0.022971	1.267029	-1.506958	-0.014135	0.962450	-1.391038	-0.176692	7.028679	-10.315383	0.000000	0.000000	27.507593	-2.225152	-1.226562	1.200490	-11.795912	36.268243	27.404230	82.164097	3.872401	6.747876	2.302721	-10.125322	44.788014	33.687801	87.524237	-11.647728	0.019847
5.000000	3.117633	-2.790135	107.635364	0.222521	0.653109	0.812813	-1.004198	5.005814	-15.718655	5.497644	0.095952	17.618102	-5.435796	0.000000	0.165364	-3.645984	18.195852	0.771504	0.013465	22.679200	-1.306046	0.000000	-0.033664	0.611226	-1.916613	-0.062518	0.812931	-2.036402	-0.055307	1.486136	-2.036402	-0.038475	1.486136	-1.677037	-0.031261	1.246413	-1.557248	-0.019236	0.946790	-1.437460	-0.240460	6.914314	-10.659628	0.000000	0.000000	27.389236	-2.073262	-1.114631	1.476620	-11.675876	36.727019	27.149522	82.089497	3.781157	6.536089	1.905735	-9.719192	43.518504	33.361255	86.925839	-10.436415	0.281822
5.022222	3.089859	-2.767561	107.786744	0.222536	0.653114	0.813658	-1.021137	4.957916	-16.525019	5.512214	0.096206	17.547140	-4.720921	0.000000	0.250353	-3.619419	17.909782	0.801988	0.013997	22.890410	-0.821587	0.000000	-0.042916	0.602576	-1.968695	-0.079699	0.801426	-2.091739	-0.070507	1.465104	-2.091739	-0.049049	1.465104	-1.722608	-0.039852	1.228773	-1.599565	-0.024522	0.933391	-1.476522	-0.306545	6.816463	-10.949293	0.000000	0.000000	27.264446	-1.814836	-0.882725	1.760919	-11.573076	37.256127	26.923186	81.988136	3.650463	6.317137	1.504147	-9.292704	42.270159	33.013119	86.288340	-9.425302	0.424894
